<?xml version="1.0" encoding="UTF-8" standalone="no"?><svg xmlns="http://www.w3.org/2000/svg" xmlns:xlink="http://www.w3.org/1999/xlink" contentScriptType="application/ecmascript" contentStyleType="text/css" height="714px" preserveAspectRatio="none" style="width:951px;height:714px;background:#FFFFFF;" version="1.1" viewBox="0 0 951 714" width="951px" zoomAndPan="magnify"><defs><filter height="300%" id="f151n2945bbmac" width="300%" x="-1" y="-1"><feGaussianBlur result="blurOut" stdDeviation="2.0"/><feColorMatrix in="blurOut" result="blurOut2" type="matrix" values="0 0 0 0 0 0 0 0 0 0 0 0 0 0 0 0 0 0 .4 0"/><feOffset dx="4.0" dy="4.0" in="blurOut2" result="blurOut3"/><feBlend in="SourceGraphic" in2="blurOut3" mode="normal"/></filter></defs><g><ellipse cx="475" cy="20" fill="#000000" filter="url(#f151n2945bbmac)" rx="10" ry="10" style="stroke:none;stroke-width:1.0;"/><rect fill="#FEFECE" filter="url(#f151n2945bbmac)" height="34.1328" rx="12.5" ry="12.5" style="stroke:#A80036;stroke-width:1.5;" width="80" x="435" y="50"/><text fill="#000000" font-family="sans-serif" font-size="12" lengthAdjust="spacing" textLength="60" x="445" y="71.6016">表达式列表</text><polygon fill="#FEFECE" filter="url(#f151n2945bbmac)" points="463,148.1328,487,148.1328,499,160.1328,487,172.1328,463,172.1328,451,160.1328,463,148.1328" style="stroke:#A80036;stroke-width:1.5;"/><text fill="#000000" font-family="sans-serif" font-size="11" lengthAdjust="spacing" textLength="23" x="463.5" y="164.29">item</text><rect fill="#FEFECE" filter="url(#f151n2945bbmac)" height="34.1328" rx="12.5" ry="12.5" style="stroke:#A80036;stroke-width:1.5;" width="138" x="36" y="195.0879"/><text fill="#000000" font-family="sans-serif" font-size="12" lengthAdjust="spacing" textLength="118" x="46" y="216.6895">queue.append(item)</text><rect fill="#FEFECE" filter="url(#f151n2945bbmac)" height="34.1328" rx="12.5" ry="12.5" style="stroke:#A80036;stroke-width:1.5;" width="115" x="185" y="195.0879"/><text fill="#000000" font-family="sans-serif" font-size="12" lengthAdjust="spacing" textLength="95" x="195" y="216.6895">stack.push(item)</text><rect fill="#FEFECE" filter="url(#f151n2945bbmac)" height="34.1328" rx="12.5" ry="12.5" style="stroke:#A80036;stroke-width:1.5;" width="178" x="344" y="243.0879"/><text fill="#000000" font-family="sans-serif" font-size="12" lengthAdjust="spacing" textLength="158" x="354" y="264.6895">queue.append(stack.pop())</text><polygon fill="#FEFECE" filter="url(#f151n2945bbmac)" points="379.5,195.0879,486.5,195.0879,498.5,207.0879,486.5,219.0879,379.5,219.0879,367.5,207.0879,379.5,195.0879" style="stroke:#A80036;stroke-width:1.5;"/><text fill="#000000" font-family="sans-serif" font-size="11" lengthAdjust="spacing" textLength="107" x="379.5" y="211.2451">stack.getTop() != "("</text><rect fill="#FEFECE" filter="url(#f151n2945bbmac)" height="48.2656" rx="12.5" ry="12.5" style="stroke:#A80036;stroke-width:1.5;" width="85" x="390.5" y="334.2207"/><text fill="#000000" font-family="sans-serif" font-size="12" lengthAdjust="spacing" textLength="65" x="400.5" y="355.8223">stack.pop()</text><text fill="#000000" font-family="sans-serif" font-size="12" lengthAdjust="spacing" textLength="60" x="400.5" y="369.9551">去除左括号</text><rect fill="#FEFECE" filter="url(#f151n2945bbmac)" height="34.1328" rx="12.5" ry="12.5" style="stroke:#A80036;stroke-width:1.5;" width="140" x="656.75" y="243.0879"/><text fill="#000000" font-family="sans-serif" font-size="12" lengthAdjust="spacing" textLength="120" x="666.75" y="264.6895">top = stack.getTop()</text><polygon fill="#FEFECE" filter="url(#f151n2945bbmac)" points="676.75,310.2207,776.75,310.2207,788.75,322.2207,776.75,334.2207,676.75,334.2207,664.75,322.2207,676.75,310.2207" style="stroke:#A80036;stroke-width:1.5;"/><text fill="#000000" font-family="sans-serif" font-size="11" lengthAdjust="spacing" textLength="100" x="676.75" y="326.3779">top的优先级 &gt; item</text><text fill="#000000" font-family="sans-serif" font-size="11" lengthAdjust="spacing" textLength="19" x="645.75" y="319.9004">Yes</text><text fill="#000000" font-family="sans-serif" font-size="11" lengthAdjust="spacing" textLength="15" x="788.75" y="319.9004">No</text><rect fill="#FEFECE" filter="url(#f151n2945bbmac)" height="34.1328" rx="12.5" ry="12.5" style="stroke:#A80036;stroke-width:1.5;" width="115" x="586" y="344.2207"/><text fill="#000000" font-family="sans-serif" font-size="12" lengthAdjust="spacing" textLength="95" x="596" y="365.8223">stack.push(item)</text><rect fill="#FEFECE" filter="url(#f151n2945bbmac)" height="34.1328" rx="12.5" ry="12.5" style="stroke:#A80036;stroke-width:1.5;" width="178" x="721" y="344.2207"/><text fill="#000000" font-family="sans-serif" font-size="12" lengthAdjust="spacing" textLength="158" x="731" y="365.8223">queue.append(stack.pop())</text><polygon fill="#FEFECE" filter="url(#f151n2945bbmac)" points="714.75,195.0879,738.75,195.0879,750.75,207.0879,738.75,219.0879,714.75,219.0879,702.75,207.0879,714.75,195.0879" style="stroke:#A80036;stroke-width:1.5;"/><text fill="#000000" font-family="sans-serif" font-size="11" lengthAdjust="spacing" textLength="22" x="715.75" y="211.2451">true</text><polygon fill="#FEFECE" filter="url(#f151n2945bbmac)" points="475,435.2207,475,435.2207,487,447.2207,475,459.2207,475,459.2207,463,447.2207,475,435.2207" style="stroke:#A80036;stroke-width:1.5;"/><polygon fill="#FEFECE" filter="url(#f151n2945bbmac)" points="447.5,104.1328,502.5,104.1328,514.5,116.1328,502.5,128.1328,447.5,128.1328,435.5,116.1328,447.5,104.1328" style="stroke:#A80036;stroke-width:1.5;"/><text fill="#000000" font-family="sans-serif" font-size="11" lengthAdjust="spacing" textLength="55" x="447.5" y="120.29">列表不为空</text><text fill="#000000" font-family="sans-serif" font-size="11" lengthAdjust="spacing" textLength="33" x="402.5" y="113.8125">empty</text><rect fill="#FEFECE" filter="url(#f151n2945bbmac)" height="34.1328" rx="12.5" ry="12.5" style="stroke:#A80036;stroke-width:1.5;" width="170" x="390" y="545.2207"/><text fill="#000000" font-family="sans-serif" font-size="12" lengthAdjust="spacing" textLength="150" x="400" y="566.8223">queue.append(stack.pop)</text><polygon fill="#FEFECE" filter="url(#f151n2945bbmac)" points="426.5,501.2207,523.5,501.2207,535.5,513.2207,523.5,525.2207,426.5,525.2207,414.5,513.2207,426.5,501.2207" style="stroke:#A80036;stroke-width:1.5;"/><text fill="#000000" font-family="sans-serif" font-size="11" lengthAdjust="spacing" textLength="97" x="426.5" y="517.3779">stack is not empty</text><text fill="#000000" font-family="sans-serif" font-size="11" lengthAdjust="spacing" textLength="33" x="381.5" y="510.9004">empty</text><rect fill="#FEFECE" filter="url(#f151n2945bbmac)" height="34.1328" rx="12.5" ry="12.5" style="stroke:#A80036;stroke-width:1.5;" width="120" x="415" y="621.3535"/><text fill="#000000" font-family="sans-serif" font-size="12" lengthAdjust="spacing" textLength="100" x="425" y="642.9551">queue 后缀表达式</text><ellipse cx="475" cy="686.4863" fill="#FFFFFF" filter="url(#f151n2945bbmac)" rx="11" ry="11" style="stroke:#000000;stroke-width:1.0;"/><ellipse cx="475" cy="686.4863" fill="#000000" rx="6" ry="6" style="stroke:#7F7F7F;stroke-width:1.0;"/><line style="stroke:#A80036;stroke-width:1.5;" x1="475" x2="475" y1="30" y2="50"/><polygon fill="#A80036" points="471,40,475,50,479,40,475,44" style="stroke:#A80036;stroke-width:1.0;"/><line style="stroke:#A80036;stroke-width:1.5;" x1="433" x2="433" y1="219.0879" y2="243.0879"/><polygon fill="#A80036" points="429,233.0879,433,243.0879,437,233.0879,433,237.0879" style="stroke:#A80036;stroke-width:1.0;"/><line style="stroke:#A80036;stroke-width:1.5;" x1="433" x2="433" y1="277.2207" y2="287.2207"/><line style="stroke:#A80036;stroke-width:1.5;" x1="433" x2="534" y1="287.2207" y2="287.2207"/><polygon fill="#A80036" points="530,258.1543,534,248.1543,538,258.1543,534,254.1543" style="stroke:#A80036;stroke-width:1.5;"/><line style="stroke:#A80036;stroke-width:1.5;" x1="534" x2="534" y1="207.0879" y2="287.2207"/><line style="stroke:#A80036;stroke-width:1.5;" x1="534" x2="498.5" y1="207.0879" y2="207.0879"/><polygon fill="#A80036" points="508.5,203.0879,498.5,207.0879,508.5,211.0879,504.5,207.0879" style="stroke:#A80036;stroke-width:1.0;"/><line style="stroke:#A80036;stroke-width:1.5;" x1="367.5" x2="332" y1="207.0879" y2="207.0879"/><polygon fill="#A80036" points="328,244.1543,332,254.1543,336,244.1543,332,248.1543" style="stroke:#A80036;stroke-width:1.5;"/><line style="stroke:#A80036;stroke-width:1.5;" x1="332" x2="332" y1="207.0879" y2="299.2207"/><line style="stroke:#A80036;stroke-width:1.5;" x1="332" x2="433" y1="299.2207" y2="299.2207"/><line style="stroke:#A80036;stroke-width:1.5;" x1="433" x2="433" y1="299.2207" y2="334.2207"/><polygon fill="#A80036" points="429,324.2207,433,334.2207,437,324.2207,433,328.2207" style="stroke:#A80036;stroke-width:1.0;"/><line style="stroke:#A80036;stroke-width:1.5;" x1="643.5" x2="643.5" y1="378.3535" y2="399.2207"/><line style="stroke:#A80036;stroke-width:1.5;" x1="643.5" x2="566" y1="399.2207" y2="399.2207"/><polygon fill="#A80036" points="576,395.2207,566,399.2207,576,403.2207,572,399.2207" style="stroke:#A80036;stroke-width:1.0;"/><line style="stroke:#A80036;stroke-width:1.5;" x1="664.75" x2="643.5" y1="322.2207" y2="322.2207"/><line style="stroke:#A80036;stroke-width:1.5;" x1="643.5" x2="643.5" y1="322.2207" y2="344.2207"/><polygon fill="#A80036" points="639.5,334.2207,643.5,344.2207,647.5,334.2207,643.5,338.2207" style="stroke:#A80036;stroke-width:1.0;"/><line style="stroke:#A80036;stroke-width:1.5;" x1="788.75" x2="810" y1="322.2207" y2="322.2207"/><line style="stroke:#A80036;stroke-width:1.5;" x1="810" x2="810" y1="322.2207" y2="344.2207"/><polygon fill="#A80036" points="806,334.2207,810,344.2207,814,334.2207,810,338.2207" style="stroke:#A80036;stroke-width:1.0;"/><line style="stroke:#A80036;stroke-width:1.5;" x1="810" x2="810" y1="378.3535" y2="413.2207"/><line style="stroke:#A80036;stroke-width:1.5;" x1="810" x2="913" y1="413.2207" y2="413.2207"/><polygon fill="#A80036" points="909,328.2207,913,318.2207,917,328.2207,913,324.2207" style="stroke:#A80036;stroke-width:1.5;"/><line style="stroke:#A80036;stroke-width:1.5;" x1="913" x2="913" y1="207.0879" y2="413.2207"/><line style="stroke:#A80036;stroke-width:1.5;" x1="913" x2="750.75" y1="207.0879" y2="207.0879"/><polygon fill="#A80036" points="760.75,203.0879,750.75,207.0879,760.75,211.0879,756.75,207.0879" style="stroke:#A80036;stroke-width:1.0;"/><line style="stroke:#A80036;stroke-width:1.5;" x1="726.75" x2="726.75" y1="277.2207" y2="310.2207"/><polygon fill="#A80036" points="722.75,300.2207,726.75,310.2207,730.75,300.2207,726.75,304.2207" style="stroke:#A80036;stroke-width:1.0;"/><line style="stroke:#A80036;stroke-width:1.5;" x1="726.75" x2="726.75" y1="219.0879" y2="243.0879"/><polygon fill="#A80036" points="722.75,233.0879,726.75,243.0879,730.75,233.0879,726.75,237.0879" style="stroke:#A80036;stroke-width:1.0;"/><line style="stroke:#A80036;stroke-width:1.5;" x1="702.75" x2="566" y1="207.0879" y2="207.0879"/><polygon fill="#A80036" points="562,375.2207,566,385.2207,570,375.2207,566,379.2207" style="stroke:#A80036;stroke-width:1.5;"/><line style="stroke:#A80036;stroke-width:1.5;" x1="566" x2="566" y1="207.0879" y2="447.2207"/><line style="stroke:#A80036;stroke-width:1.5;" x1="566" x2="487" y1="447.2207" y2="447.2207"/><polygon fill="#A80036" points="497,443.2207,487,447.2207,497,451.2207,493,447.2207" style="stroke:#A80036;stroke-width:1.0;"/><line style="stroke:#A80036;stroke-width:1.5;" x1="451" x2="105" y1="160.1328" y2="160.1328"/><line style="stroke:#A80036;stroke-width:1.5;" x1="105" x2="105" y1="160.1328" y2="195.0879"/><polygon fill="#A80036" points="101,185.0879,105,195.0879,109,185.0879,105,189.0879" style="stroke:#A80036;stroke-width:1.0;"/><text fill="#000000" font-family="sans-serif" font-size="11" lengthAdjust="spacing" textLength="70" x="105" y="181.7676">item == data</text><line style="stroke:#A80036;stroke-width:1.5;" x1="499" x2="726.75" y1="160.1328" y2="160.1328"/><line style="stroke:#A80036;stroke-width:1.5;" x1="726.75" x2="726.75" y1="160.1328" y2="195.0879"/><polygon fill="#A80036" points="722.75,185.0879,726.75,195.0879,730.75,185.0879,726.75,189.0879" style="stroke:#A80036;stroke-width:1.0;"/><line style="stroke:#A80036;stroke-width:1.5;" x1="105" x2="105" y1="229.2207" y2="447.2207"/><line style="stroke:#A80036;stroke-width:1.5;" x1="105" x2="463" y1="447.2207" y2="447.2207"/><polygon fill="#A80036" points="453,443.2207,463,447.2207,453,451.2207,457,447.2207" style="stroke:#A80036;stroke-width:1.0;"/><line style="stroke:#A80036;stroke-width:1.5;" x1="242.5" x2="242.5" y1="160.1328" y2="195.0879"/><polygon fill="#A80036" points="238.5,185.0879,242.5,195.0879,246.5,185.0879,242.5,189.0879" style="stroke:#A80036;stroke-width:1.0;"/><text fill="#000000" font-family="sans-serif" font-size="11" lengthAdjust="spacing" textLength="95" x="242.5" y="181.7676">item == "(" 左括号</text><line style="stroke:#A80036;stroke-width:1.5;" x1="242.5" x2="242.5" y1="229.2207" y2="447.2207"/><polygon fill="#A80036" points="238.5,437.2207,242.5,447.2207,246.5,437.2207,242.5,441.2207" style="stroke:#A80036;stroke-width:1.0;"/><line style="stroke:#A80036;stroke-width:1.5;" x1="433" x2="433" y1="160.1328" y2="195.0879"/><polygon fill="#A80036" points="429,185.0879,433,195.0879,437,185.0879,433,189.0879" style="stroke:#A80036;stroke-width:1.0;"/><text fill="#000000" font-family="sans-serif" font-size="11" lengthAdjust="spacing" textLength="95" x="433" y="181.7676">item == ")" 右括号</text><line style="stroke:#A80036;stroke-width:1.5;" x1="433" x2="433" y1="382.4863" y2="447.2207"/><polygon fill="#A80036" points="429,437.2207,433,447.2207,437,437.2207,433,441.2207" style="stroke:#A80036;stroke-width:1.0;"/><line style="stroke:#A80036;stroke-width:1.5;" x1="475" x2="475" y1="128.1328" y2="148.1328"/><polygon fill="#A80036" points="471,138.1328,475,148.1328,479,138.1328,475,142.1328" style="stroke:#A80036;stroke-width:1.0;"/><line style="stroke:#A80036;stroke-width:1.5;" x1="475" x2="475" y1="459.2207" y2="469.2207"/><line style="stroke:#A80036;stroke-width:1.5;" x1="475" x2="925" y1="469.2207" y2="469.2207"/><polygon fill="#A80036" points="921,359.7432,925,349.7432,929,359.7432,925,355.7432" style="stroke:#A80036;stroke-width:1.5;"/><line style="stroke:#A80036;stroke-width:1.5;" x1="925" x2="925" y1="116.1328" y2="469.2207"/><line style="stroke:#A80036;stroke-width:1.5;" x1="925" x2="514.5" y1="116.1328" y2="116.1328"/><polygon fill="#A80036" points="524.5,112.1328,514.5,116.1328,524.5,120.1328,520.5,116.1328" style="stroke:#A80036;stroke-width:1.0;"/><line style="stroke:#A80036;stroke-width:1.5;" x1="435.5" x2="24" y1="116.1328" y2="116.1328"/><polygon fill="#A80036" points="20,345.7432,24,355.7432,28,345.7432,24,349.7432" style="stroke:#A80036;stroke-width:1.5;"/><line style="stroke:#A80036;stroke-width:1.5;" x1="24" x2="24" y1="116.1328" y2="481.2207"/><line style="stroke:#A80036;stroke-width:1.5;" x1="24" x2="475" y1="481.2207" y2="481.2207"/><line style="stroke:#A80036;stroke-width:1.5;" x1="475" x2="475" y1="481.2207" y2="501.2207"/><polygon fill="#A80036" points="471,491.2207,475,501.2207,479,491.2207,475,495.2207" style="stroke:#A80036;stroke-width:1.0;"/><line style="stroke:#A80036;stroke-width:1.5;" x1="475" x2="475" y1="84.1328" y2="104.1328"/><polygon fill="#A80036" points="471,94.1328,475,104.1328,479,94.1328,475,98.1328" style="stroke:#A80036;stroke-width:1.0;"/><line style="stroke:#A80036;stroke-width:1.5;" x1="475" x2="475" y1="525.2207" y2="545.2207"/><polygon fill="#A80036" points="471,535.2207,475,545.2207,479,535.2207,475,539.2207" style="stroke:#A80036;stroke-width:1.0;"/><line style="stroke:#A80036;stroke-width:1.5;" x1="475" x2="475" y1="579.3535" y2="589.3535"/><line style="stroke:#A80036;stroke-width:1.5;" x1="475" x2="572" y1="589.3535" y2="589.3535"/><polygon fill="#A80036" points="568,560.2871,572,550.2871,576,560.2871,572,556.2871" style="stroke:#A80036;stroke-width:1.5;"/><line style="stroke:#A80036;stroke-width:1.5;" x1="572" x2="572" y1="513.2207" y2="589.3535"/><line style="stroke:#A80036;stroke-width:1.5;" x1="572" x2="535.5" y1="513.2207" y2="513.2207"/><polygon fill="#A80036" points="545.5,509.2207,535.5,513.2207,545.5,517.2207,541.5,513.2207" style="stroke:#A80036;stroke-width:1.0;"/><line style="stroke:#A80036;stroke-width:1.5;" x1="414.5" x2="378" y1="513.2207" y2="513.2207"/><polygon fill="#A80036" points="374,546.2871,378,556.2871,382,546.2871,378,550.2871" style="stroke:#A80036;stroke-width:1.5;"/><line style="stroke:#A80036;stroke-width:1.5;" x1="378" x2="378" y1="513.2207" y2="601.3535"/><line style="stroke:#A80036;stroke-width:1.5;" x1="378" x2="475" y1="601.3535" y2="601.3535"/><line style="stroke:#A80036;stroke-width:1.5;" x1="475" x2="475" y1="601.3535" y2="621.3535"/><polygon fill="#A80036" points="471,611.3535,475,621.3535,479,611.3535,475,615.3535" style="stroke:#A80036;stroke-width:1.0;"/><line style="stroke:#A80036;stroke-width:1.5;" x1="475" x2="475" y1="655.4863" y2="675.4863"/><polygon fill="#A80036" points="471,665.4863,475,675.4863,479,665.4863,475,669.4863" style="stroke:#A80036;stroke-width:1.0;"/><!--MD5=[033cb5f4667237478c49fa51a6afd4fb]
@startuml
'https://plantuml.com/activity-diagram-beta

start
:表达式列表;
while (列表不为空)
    switch (item)
    case (item == data)
        :queue.append(item);
    case (item == "(" 左括号)
            :stack.push(item);
    case (item == ")" 右括号)
        while (stack.getTop() != "(")
            :queue.append(stack.pop());
        endwhile
        :stack.pop()
        去除左括号;
    case ()
        while (true)
            :top = stack.getTop();
            if (top的优先级 > item) then (Yes)
                :stack.push(item);
                break
            else (No)
                :queue.append(stack.pop());
            endif
        endwhile
    endswitch
endwhile (empty)

while (stack is not empty)
    :queue.append(stack.pop);
endwhile (empty)

:queue 后缀表达式;

stop

@enduml

@startuml

start
:表达式列表;
while (列表不为空)
    switch (item)
    case (item == data)
        :queue.append(item);
    case (item == "(" 左括号)
            :stack.push(item);
    case (item == ")" 右括号)
        while (stack.getTop() != "(")
            :queue.append(stack.pop());
        endwhile
        :stack.pop()
        去除左括号;
    case ()
        while (true)
            :top = stack.getTop();
            if (top的优先级 > item) then (Yes)
                :stack.push(item);
                break
            else (No)
                :queue.append(stack.pop());
            endif
        endwhile
    endswitch
endwhile (empty)

while (stack is not empty)
    :queue.append(stack.pop);
endwhile (empty)

:queue 后缀表达式;

stop

@enduml

PlantUML version 1.2021.7(Sun May 23 20:40:07 CST 2021)
(GPL source distribution)
Java Runtime: Java(TM) SE Runtime Environment
JVM: Java HotSpot(TM) 64-Bit Server VM
Default Encoding: UTF-8
Language: zh
Country: CN
--></g></svg>